<svg xmlns="http://www.w3.org/2000/svg" xmlns:svg="http://www.w3.org/2000/svg" id="svg8" width="584" height="144" version="1.1" viewBox="0 0 584 144"><defs id="defs2"><marker id="marker6705" orient="auto" refX="0" refY="0" style="overflow:visible"><path id="path6703" d="M 0,0 5,-5 -12.5,0 5,5 Z" transform="matrix(-0.4,0,0,-0.4,-4,0)" style="fill:#ff8000;fill-opacity:1;fill-rule:evenodd;stroke:#ff8000;stroke-width:1.00000003pt;stroke-opacity:1"/></marker><marker style="overflow:visible" id="marker13385" orient="auto" refX="0" refY="0"><path style="fill:#ff8000;fill-opacity:1;fill-rule:evenodd;stroke:#ff8000;stroke-width:1.00000003pt;stroke-opacity:1" id="path13383" d="M 0,0 5,-5 -12.5,0 5,5 Z" transform="matrix(-0.4,0,0,-0.4,-4,0)"/></marker><marker id="marker5763" orient="auto" refX="0" refY="0" style="overflow:visible"><path id="path5761" d="M 0,0 5,-5 -12.5,0 5,5 Z" transform="matrix(-0.4,0,0,-0.4,-4,0)" style="fill:#000;fill-opacity:1;fill-rule:evenodd;stroke:#000;stroke-width:1.00000003pt;stroke-opacity:1"/></marker></defs><metadata id="metadata5"/><g id="layer1" transform="translate(0,-978.51965)"><rect style="opacity:1;fill:#fff;fill-opacity:1;fill-rule:evenodd;stroke:none;stroke-width:1;stroke-linecap:round;stroke-linejoin:round;stroke-miterlimit:4;stroke-dasharray:none;stroke-opacity:1;paint-order:normal" id="rect13915" width="584" height="144" x="0" y="978.52"/><text id="text4606" x="19" y="1075.934" xml:space="preserve" style="font-style:normal;font-variant:normal;font-weight:400;font-stretch:normal;font-size:16px;line-height:24px;font-family:'DejaVu Sans Mono';-inkscape-font-specification:'DejaVu Sans Mono, Normal';font-variant-ligatures:normal;font-variant-caps:normal;font-variant-numeric:normal;font-feature-settings:normal;text-align:start;letter-spacing:0;word-spacing:0;writing-mode:lr-tb;text-anchor:start;fill:#000;fill-opacity:1;stroke:none;stroke-width:1px;stroke-linecap:butt;stroke-linejoin:miter;stroke-opacity:1"><tspan style="font-style:normal;font-variant:normal;font-weight:400;font-stretch:normal;font-size:16px;line-height:24px;font-family:'DejaVu Sans Mono';-inkscape-font-specification:'DejaVu Sans Mono, Normal';font-variant-ligatures:normal;font-variant-caps:normal;font-variant-numeric:normal;font-feature-settings:normal;text-align:start;letter-spacing:0;writing-mode:lr-tb;text-anchor:start;fill:#8b2252;fill-opacity:1" id="tspan4604" x="19" y="1075.934">&quot;The quick brown \(<tspan id="tspan4628" style="font-style:normal;font-variant:normal;font-weight:400;font-stretch:normal;font-size:16px;line-height:24px;font-family:'DejaVu Sans Mono';-inkscape-font-specification:'DejaVu Sans Mono, Normal';font-variant-ligatures:normal;font-variant-caps:normal;font-variant-numeric:normal;font-feature-settings:normal;text-align:start;letter-spacing:0;writing-mode:lr-tb;text-anchor:start;fill:#000">fox()<tspan id="tspan4594" style="font-style:normal;font-variant:normal;font-weight:400;font-stretch:normal;font-size:16px;line-height:24px;font-family:'DejaVu Sans Mono';-inkscape-font-specification:'DejaVu Sans Mono, Normal';font-variant-ligatures:normal;font-variant-caps:normal;font-variant-numeric:normal;font-feature-settings:normal;text-align:start;letter-spacing:0;writing-mode:lr-tb;text-anchor:start;fill:#8b2252;fill-opacity:1">) jumps over the lazy \(</tspan>dog()</tspan>)&quot;</tspan></text><path style="opacity:1;fill:none;fill-opacity:1;fill-rule:evenodd;stroke:#000;stroke-width:1;stroke-linecap:round;stroke-linejoin:round;stroke-miterlimit:4;stroke-dasharray:none;stroke-opacity:1;paint-order:normal" id="path4633" d="m 200,1084.5197 c 0,4.4183 -3.58172,8 -8,8 h -80.00005 c -4.41828,0 -7.99995,3.5817 -7.99995,8 m -88.00005,-16 c 0,4.4183 3.581754,8 8.000054,8 H 96 c 4.4182,0 8,3.5817 8,8"/><text id="text4637" x="70.353" y="1116.48" xml:space="preserve" style="font-style:normal;font-weight:400;font-size:10px;line-height:25px;font-family:Sans;letter-spacing:0;word-spacing:0;fill:#000;fill-opacity:1;stroke:none;stroke-width:1px;stroke-linecap:butt;stroke-linejoin:miter;stroke-opacity:1"><tspan id="tspan4635" x="70.353" y="1116.48">string chunk</tspan></text><path id="path4639" d="m 248,1056.3897 c 0,-4.4183 -3.58172,-8 -8,-8 h -8.00005 c -4.41828,0 -7.99995,-3.5818 -7.99995,-8 m -24.00005,16 c 0,-4.4183 3.58175,-8 8.00005,-8 h 8 c 4.4182,0 8,-3.5818 8,-8" style="opacity:1;fill:none;fill-opacity:1;fill-rule:evenodd;stroke:#000;stroke-width:1;stroke-linecap:round;stroke-linejoin:round;stroke-miterlimit:4;stroke-dasharray:none;stroke-opacity:1;paint-order:normal"/><text style="font-style:normal;font-weight:400;font-size:10px;line-height:25px;font-family:Sans;letter-spacing:0;word-spacing:0;fill:#000;fill-opacity:1;stroke:none;stroke-width:1px;stroke-linecap:butt;stroke-linejoin:miter;stroke-opacity:1" id="text4643" x="168.876" y="1032.23" xml:space="preserve"><tspan id="tspan4641" x="168.876" y="1032.23">interpolated expression</tspan></text><path id="path4645" d="m 480,1084.5197 c 0,4.4183 -3.58172,8 -8,8 h -96.00005 c -4.41828,0 -7.99995,3.5817 -7.99995,8 m -120.00005,-16 c 0,4.4183 3.58175,8 8.00005,8 h 104 c 4.4182,0 8,3.5817 8,8" style="opacity:1;fill:none;fill-opacity:1;fill-rule:evenodd;stroke:#000;stroke-width:1;stroke-linecap:round;stroke-linejoin:round;stroke-miterlimit:4;stroke-dasharray:none;stroke-opacity:1;paint-order:normal"/><path style="opacity:1;fill:none;fill-opacity:1;fill-rule:evenodd;stroke:#000;stroke-width:1;stroke-linecap:round;stroke-linejoin:round;stroke-miterlimit:4;stroke-dasharray:none;stroke-opacity:1;paint-order:normal" id="path4647" d="m 528,1056.3897 c 0,-4.4183 -3.58172,-8 -8,-8 h -8.00005 c -4.41828,0 -7.99995,-3.5818 -7.99995,-8 m -24,16 c 0,-4.4183 3.58175,-8 8.00005,-8 h 6.00005 c 4.4182,0 9.9999,-3.5818 9.9999,-8"/><path style="opacity:1;fill:none;fill-opacity:1;fill-rule:evenodd;stroke:#000;stroke-width:1;stroke-linecap:round;stroke-linejoin:round;stroke-miterlimit:4;stroke-dasharray:none;stroke-opacity:1;paint-order:normal" id="path4649" d="m 559.99995,1084.5197 c 0,4.4183 -3.58172,8 -8,8 v 0 c -4.41828,0 -7.99995,3.5817 -7.99995,8 m -14.00005,-16 c 0,4.4183 3.58175,8 8,8 4.41825,0 6.00005,3.5817 6.00005,8"/><text style="font-style:normal;font-weight:400;font-size:10px;line-height:25px;font-family:Sans;letter-spacing:0;word-spacing:0;fill:#000;fill-opacity:1;stroke:none;stroke-width:1px;stroke-linecap:butt;stroke-linejoin:miter;stroke-opacity:1" id="text4653" x="335.022" y="1116.48" xml:space="preserve"><tspan id="tspan4651" x="335.022" y="1116.48">string chunk</tspan></text><text id="text4657" x="516.022" y="1114.02" xml:space="preserve" style="font-style:normal;font-weight:400;font-size:10px;line-height:25px;font-family:Sans;letter-spacing:0;word-spacing:0;fill:#000;fill-opacity:1;stroke:none;stroke-width:1px;stroke-linecap:butt;stroke-linejoin:miter;stroke-opacity:1"><tspan id="tspan4655" x="516.022" y="1114.02">string chunk</tspan></text><text id="text4661" x="449.876" y="1032.23" xml:space="preserve" style="font-style:normal;font-weight:400;font-size:10px;line-height:25px;font-family:Sans;letter-spacing:0;word-spacing:0;fill:#000;fill-opacity:1;stroke:none;stroke-width:1px;stroke-linecap:butt;stroke-linejoin:miter;stroke-opacity:1"><tspan id="tspan4659" x="449.876" y="1032.23">interpolated expression</tspan></text><path id="path9031" d="m 560,1021.3897 c 0,-4.4183 -3.58172,-8 -8,-8 H 295.99995 c -4.41828,0 -7.99995,-3.5818 -7.99995,-8 m -272.00005,16 c 0,-4.4183 3.581754,-8 8.000054,-8 H 280 c 4.4182,0 8,-3.5818 8,-8" style="opacity:1;fill:none;fill-opacity:1;fill-rule:evenodd;stroke:#000;stroke-width:1;stroke-linecap:round;stroke-linejoin:round;stroke-miterlimit:4;stroke-dasharray:none;stroke-opacity:1;paint-order:normal"/><text id="text9035" x="224.045" y="997.77" xml:space="preserve" style="font-style:normal;font-weight:400;font-size:10px;line-height:25px;font-family:Sans;letter-spacing:0;word-spacing:0;fill:#000;fill-opacity:1;stroke:none;stroke-width:1px;stroke-linecap:butt;stroke-linejoin:miter;stroke-opacity:1"><tspan id="tspan9033" x="224.045" y="997.77">interpolated string</tspan></text></g></svg>